<?xml-stylesheet type="text/css" href="helga_logo.css"?>



<svg width="574.8" height="121.6" version="1.1"  id="Слой_1" xmlns="http://www.w3.org/2000/svg" xmlns:xlink="http://www.w3.org/1999/xlink" x="0px" y="0px"
	 viewBox="0 0 287.4 60.3"  preserveAspectRatio="none">

<g id="helga">
	<path id="h" d="M9.5,1.5h4.4v16.8H9.5v-5.4H4.4v5.4H0V1.5h4.4v7.1h5.1V1.5z"/>
	<path id="e_1_" d="M15,13.3c0-1.6,0.4-2.8,1.3-3.8c0.8-1,2-1.4,3.5-1.4c0.7,0,1.3,0.1,1.8,0.4c0.6,0.2,1.1,0.6,1.5,1
		c0.4,0.4,0.8,0.9,1,1.5s0.4,1.2,0.4,1.8v1.6H19c0.1,0.2,0.2,0.3,0.3,0.4c0.1,0.1,0.4,0.2,0.7,0.2h3.3v3.1c-0.5,0.3-1.1,0.4-1.6,0.5
		c-0.6,0.1-1.2,0.1-1.8,0.1c-1.5,0-2.7-0.4-3.6-1.3c-0.9-0.9-1.3-2.1-1.3-3.7V13.3z M19.9,10.9c-0.3,0-0.5,0.1-0.7,0.3
		c-0.2,0.2-0.3,0.4-0.3,0.7h1.9c0-0.3-0.1-0.5-0.3-0.7C20.3,11,20.1,10.9,19.9,10.9z"/>
	<path id="l_1_" d="M29.7,1.5v16.8H26V1.5H29.7z"/>
	<path id="g_1_" d="M43.5,8.1v3.7h-2c0.2,0.5,0.2,1,0.2,1.6c0,0.7-0.1,1.4-0.4,2.1c-0.3,0.6-0.6,1.2-1.1,1.7s-1,0.9-1.7,1.1
		c-0.6,0.3-1.3,0.4-2,0.4c-0.2,0-0.4,0.1-0.6,0.3c-0.2,0.2-0.2,0.4-0.2,0.7c0,0.3,0.1,0.5,0.3,0.7c0.2,0.2,0.4,0.3,0.7,0.3
		c0.3,0,0.8,0.1,1.4,0.2c0.6,0.1,1.3,0.3,1.9,0.7s1.2,0.8,1.6,1.5c0.5,0.6,0.7,1.5,0.7,2.5c0,0.7-0.2,1.3-0.5,1.9s-0.7,1.1-1.3,1.5
		c-0.5,0.4-1.2,0.8-1.9,1s-1.5,0.4-2.4,0.4s-1.6-0.1-2.4-0.4s-1.4-0.6-1.9-1c-0.5-0.4-1-0.9-1.3-1.5s-0.5-1.2-0.5-1.9
		c0-0.8,0.2-1.5,0.6-2.1c0.4-0.7,0.9-1.2,1.6-1.6c-0.3-0.6-0.5-1.3-0.5-2.1c0-0.9,0.2-1.8,0.7-2.5c-0.5-0.5-0.9-1.1-1.1-1.7
		c-0.3-0.6-0.4-1.3-0.4-2.1c0-0.7,0.1-1.4,0.4-2.1c0.3-0.6,0.7-1.2,1.1-1.7s1-0.9,1.7-1.1s1.3-0.4,2.1-0.4H43.5z M37.4,24.4H35
		c-0.3,0-0.6,0.1-0.8,0.3c-0.2,0.2-0.3,0.5-0.3,0.8c0,0.3,0.1,0.6,0.3,0.8c0.2,0.2,0.5,0.3,0.8,0.3h2.4c0.3,0,0.6-0.1,0.8-0.3
		c0.2-0.2,0.3-0.5,0.3-0.8c0-0.3-0.1-0.6-0.3-0.8C38,24.5,37.7,24.4,37.4,24.4z M36.4,15c0.4,0,0.8-0.2,1.1-0.5s0.5-0.7,0.5-1.1
		c0-0.5-0.2-0.8-0.5-1.1s-0.7-0.5-1.1-0.5s-0.8,0.2-1.1,0.5c-0.3,0.3-0.5,0.7-0.5,1.1c0,0.4,0.2,0.8,0.5,1.1
		C35.6,14.8,36,15,36.4,15z"/>
	<path id="a_1_" d="M52.9,9H56v9.2h-1.3l-1.3-0.9c-0.5,0.4-1,0.8-1.6,1c-0.6,0.2-1.3,0.4-2,0.4c-0.7,0-1.4-0.1-2.1-0.4
		s-1.2-0.7-1.7-1.1s-0.9-1-1.1-1.7c-0.3-0.6-0.4-1.3-0.4-2.1c0-0.7,0.1-1.4,0.4-2.1c0.3-0.6,0.7-1.2,1.1-1.7s1-0.9,1.7-1.1
		s1.3-0.4,2.1-0.4c0.6,0,1.1,0.1,1.6,0.2C52,8.5,52.5,8.7,52.9,9z M49.8,15c0.4,0,0.8-0.2,1.1-0.5c0.3-0.3,0.5-0.7,0.5-1.1
		c0-0.5-0.2-0.8-0.5-1.1c-0.3-0.3-0.7-0.5-1.1-0.5c-0.4,0-0.8,0.2-1.1,0.5c-0.3,0.3-0.5,0.7-0.5,1.1c0,0.4,0.2,0.8,0.5,1.1
		C49,14.8,49.4,15,49.8,15z"/>
</g>

<g id="vorobei">
	<path id="v" d="M75.4,11.2l3.3-9.8h4.8l-5.9,16.8h-4.5L67.2,1.5H72L75.4,11.2z"/>
	<path id="o_1_" d="M86.5,18.7c-0.7,0-1.4-0.1-2.1-0.4s-1.2-0.7-1.7-1.1s-0.9-1-1.1-1.7c-0.3-0.6-0.4-1.3-0.4-2.1
		c0-0.7,0.1-1.4,0.4-2.1c0.3-0.6,0.7-1.2,1.1-1.7s1-0.9,1.7-1.1s1.3-0.4,2.1-0.4c0.7,0,1.4,0.1,2.1,0.4s1.2,0.7,1.7,1.1
		s0.9,1,1.1,1.7s0.4,1.3,0.4,2.1c0,0.7-0.1,1.4-0.4,2.1c-0.3,0.6-0.7,1.2-1.1,1.7s-1,0.9-1.7,1.1S87.2,18.7,86.5,18.7z M86.5,11.8
		c-0.4,0-0.8,0.2-1.1,0.5s-0.5,0.7-0.5,1.1c0,0.4,0.2,0.8,0.5,1.1s0.7,0.5,1.1,0.5c0.4,0,0.8-0.2,1.1-0.5s0.5-0.7,0.5-1.1
		c0-0.5-0.2-0.8-0.5-1.1S86.9,11.8,86.5,11.8z"/>
	<path id="r" d="M98.5,8.1h1.8v3.7h-1.8c-0.4,0-0.8,0.1-1.1,0.4c-0.3,0.3-0.4,0.7-0.4,1.1v4.9h-3.7V9.1h2.2c0.4-0.3,0.9-0.6,1.5-0.7
		S97.9,8.1,98.5,8.1z"/>
	<path id="o" d="M106.9,18.7c-0.7,0-1.4-0.1-2.1-0.4s-1.2-0.7-1.7-1.1s-0.9-1-1.1-1.7c-0.3-0.6-0.4-1.3-0.4-2.1
		c0-0.7,0.1-1.4,0.4-2.1c0.3-0.6,0.7-1.2,1.1-1.7s1-0.9,1.7-1.1s1.3-0.4,2.1-0.4c0.7,0,1.4,0.1,2.1,0.4s1.2,0.7,1.7,1.1
		s0.9,1,1.1,1.7s0.4,1.3,0.4,2.1c0,0.7-0.1,1.4-0.4,2.1c-0.3,0.6-0.7,1.2-1.1,1.7s-1,0.9-1.7,1.1S107.7,18.7,106.9,18.7z
		 M106.9,11.8c-0.4,0-0.8,0.2-1.1,0.5s-0.5,0.7-0.5,1.1c0,0.4,0.2,0.8,0.5,1.1s0.7,0.5,1.1,0.5c0.4,0,0.8-0.2,1.1-0.5
		s0.5-0.7,0.5-1.1c0-0.5-0.2-0.8-0.5-1.1S107.4,11.8,106.9,11.8z"/>
	<path id="b" d="M118.8,8.1c0.7,0,1.4,0.1,2.1,0.4s1.2,0.7,1.7,1.1s0.9,1,1.1,1.7s0.4,1.3,0.4,2.1c0,0.7-0.1,1.4-0.4,2.1
		c-0.3,0.6-0.7,1.2-1.1,1.7s-1,0.9-1.7,1.1s-1.3,0.4-2.1,0.4c-0.8,0-1.5-0.2-2.2-0.5h-3.1v-4.8v-12h3.7v6.9c0.3-0.1,0.5-0.1,0.8-0.2
		C118.3,8.1,118.6,8.1,118.8,8.1z M118.8,15c0.4,0,0.8-0.2,1.1-0.5s0.5-0.7,0.5-1.1c0-0.5-0.2-0.8-0.5-1.1s-0.7-0.5-1.1-0.5
		c-0.4,0-0.8,0.2-1.1,0.5s-0.5,0.7-0.5,1.1c0,0.4,0.2,0.8,0.5,1.1S118.4,15,118.8,15z"/>
	<path id="e" d="M125.6,13.3c0-1.6,0.4-2.8,1.3-3.8c0.8-1,2-1.4,3.5-1.4c0.7,0,1.3,0.1,1.8,0.4c0.6,0.2,1.1,0.6,1.5,1
		c0.4,0.4,0.8,0.9,1,1.5s0.4,1.2,0.4,1.8v1.6h-5.5c0.1,0.2,0.2,0.3,0.3,0.4c0.1,0.1,0.4,0.2,0.7,0.2h3.3v3.1
		c-0.5,0.3-1.1,0.4-1.6,0.5c-0.6,0.1-1.2,0.1-1.8,0.1c-1.5,0-2.7-0.4-3.6-1.3c-0.9-0.9-1.3-2.1-1.3-3.7V13.3z M130.4,10.9
		c-0.3,0-0.5,0.1-0.7,0.3c-0.2,0.2-0.3,0.4-0.3,0.7h1.9c0-0.3-0.1-0.5-0.3-0.7C130.9,11,130.6,10.9,130.4,10.9z"/>
	<path id="i" d="M136.4,8.3h7v10.2h-3.7V13h-3.2V8.3z"/>
</g>

<g id="olga">
	<path id="o_2_" d="M18.1,18.7c-0.9,0-1.8-0.2-2.6-0.5c-0.8-0.4-1.5-0.8-2.1-1.4s-1.1-1.3-1.4-2.1s-0.5-1.7-0.5-2.6V7.6
		c0-0.9,0.2-1.8,0.5-2.6s0.8-1.5,1.4-2.1s1.3-1.1,2.1-1.4C16.3,1.2,17.2,1,18.1,1s1.8,0.2,2.6,0.5c0.8,0.3,1.5,0.8,2.1,1.4
		c0.6,0.6,1.1,1.3,1.4,2.1c0.4,0.8,0.5,1.7,0.5,2.6v4.5c0,0.9-0.2,1.8-0.5,2.6c-0.4,0.8-0.8,1.5-1.4,2.1c-0.6,0.6-1.3,1.1-2.1,1.4
		C19.9,18.6,19,18.7,18.1,18.7z M18.1,5.3c-0.3,0-0.6,0.1-0.9,0.2C17,5.6,16.7,5.8,16.5,6c-0.2,0.2-0.4,0.4-0.5,0.7
		c-0.1,0.3-0.2,0.6-0.2,0.9v4.5c0,0.3,0.1,0.6,0.2,0.9c0.1,0.3,0.3,0.5,0.5,0.7c0.2,0.2,0.5,0.4,0.7,0.5c0.3,0.1,0.6,0.2,0.9,0.2
		c0.6,0,1.2-0.2,1.6-0.7s0.7-1,0.7-1.6V7.6c0-0.6-0.2-1.2-0.7-1.6S18.8,5.3,18.1,5.3z"/>
	<path id="l" d="M30.1,1.5v16.8h-3.7V1.5H30.1z"/>
	<path id="g" d="M43.6,8.1v3.7h-2c0.2,0.5,0.2,1,0.2,1.6c0,0.7-0.1,1.4-0.4,2.1c-0.3,0.6-0.6,1.2-1.1,1.7s-1,0.9-1.7,1.1
		c-0.6,0.3-1.3,0.4-2,0.4c-0.2,0-0.4,0.1-0.6,0.3c-0.2,0.2-0.2,0.4-0.2,0.7c0,0.3,0.1,0.5,0.3,0.7c0.2,0.2,0.4,0.3,0.7,0.3
		c0.3,0,0.8,0.1,1.4,0.2c0.6,0.1,1.3,0.3,1.9,0.7s1.2,0.8,1.6,1.5c0.5,0.6,0.7,1.5,0.7,2.5c0,0.7-0.2,1.3-0.5,1.9s-0.7,1.1-1.3,1.5
		c-0.5,0.4-1.2,0.8-1.9,1s-1.5,0.4-2.4,0.4s-1.6-0.1-2.4-0.4s-1.4-0.6-1.9-1s-1-0.9-1.3-1.5s-0.5-1.2-0.5-1.9c0-0.8,0.2-1.5,0.6-2.1
		c0.4-0.7,0.9-1.2,1.6-1.6c-0.3-0.6-0.5-1.3-0.5-2.1c0-0.9,0.2-1.8,0.7-2.5c-0.5-0.5-0.9-1.1-1.1-1.7c-0.3-0.6-0.4-1.3-0.4-2.1
		c0-0.7,0.1-1.4,0.4-2.1c0.3-0.6,0.7-1.2,1.1-1.7s1-0.9,1.7-1.1s1.3-0.4,2.1-0.4H43.6z M37.5,24.4h-2.4c-0.3,0-0.6,0.1-0.8,0.3
		C34.1,25,34,25.2,34,25.6c0,0.3,0.1,0.6,0.3,0.8c0.2,0.2,0.5,0.3,0.8,0.3h2.4c0.3,0,0.6-0.1,0.8-0.3c0.2-0.2,0.3-0.5,0.3-0.8
		c0-0.3-0.1-0.6-0.3-0.8C38.1,24.5,37.9,24.4,37.5,24.4z M36.5,15c0.4,0,0.8-0.2,1.1-0.5s0.5-0.7,0.5-1.1c0-0.5-0.2-0.8-0.5-1.1
		s-0.7-0.5-1.1-0.5s-0.8,0.2-1.1,0.5C35.1,12.6,35,13,35,13.4c0,0.4,0.2,0.8,0.5,1.1C35.7,14.9,36.1,15,36.5,15z"/>
	<path id="a" d="M52.9,9.1H56v9.2h-1.3l-1.3-0.9c-0.5,0.4-1,0.8-1.6,1c-0.6,0.2-1.3,0.4-2,0.4c-0.7,0-1.4-0.1-2.1-0.4
		s-1.2-0.7-1.7-1.1s-0.9-1-1.1-1.7c-0.3-0.6-0.4-1.3-0.4-2.1c0-0.7,0.1-1.4,0.4-2.1c0.3-0.6,0.7-1.2,1.1-1.7s1-0.9,1.7-1.1
		s1.3-0.4,2.1-0.4c0.6,0,1.1,0.1,1.6,0.2C52,8.5,52.5,8.8,52.9,9.1z M49.8,15c0.4,0,0.8-0.2,1.1-0.5c0.3-0.3,0.5-0.7,0.5-1.1
		c0-0.5-0.2-0.8-0.5-1.1c-0.3-0.3-0.7-0.5-1.1-0.5c-0.4,0-0.8,0.2-1.1,0.5c-0.3,0.3-0.5,0.7-0.5,1.1c0,0.4,0.2,0.8,0.5,1.1
		C49,14.9,49.4,15,49.8,15z"/>
</g>
<circle id="с" cx="140" cy="4" r="3"/>

</svg>
